Coordinates
version=1
nRows=13
nColumns=40
inDegrees=yes

Units are S.I. units (second, meters, Newtons, ...)
Angles are in degrees.

endheader
time	pelvis_tilt	pelvis_list	pelvis_rotation	pelvis_tx	pelvis_ty	pelvis_tz	hip_flexion_r	hip_adduction_r	hip_rotation_r	knee_angle_r	knee_angle_r_beta	ankle_angle_r	subtalar_angle_r	mtp_angle_r	hip_flexion_l	hip_adduction_l	hip_rotation_l	knee_angle_l	knee_angle_l_beta	ankle_angle_l	subtalar_angle_l	mtp_angle_l	lumbar_extension	lumbar_bending	lumbar_rotation	arm_flex_r	arm_add_r	arm_rot_r	elbow_flex_r	pro_sup_r	wrist_flex_r	wrist_dev_r	arm_flex_l	arm_add_l	arm_rot_l	elbow_flex_l	pro_sup_l	wrist_flex_l	wrist_dev_l
     21.14500000	     -6.40120782	     -6.56270964	      2.59060892	      1.01109723	      0.92352522	      0.49063407	      2.79538493	      6.97014440	    -16.94083785	      9.44401128	      9.44401128	     15.36326534	     10.38170352	     -1.71271346	     33.60767392	    -10.50626058	     -3.68677229	     21.80169493	     21.80169493	      5.06686834	     -7.53804466	     10.08638189	    -10.63405264	      9.13405217	      5.49995165	     42.51923448	    -14.35359098	      3.04965229	    106.06378436	     43.82108380	      0.00000000	      0.00000000	    -12.08749282	     -7.07047232	     -3.03426429	     29.55167282	     45.86103883	      0.00000000	      0.00000000
     21.15735714	     -6.40726584	     -6.63195165	      2.39972457	      1.01132392	      0.92243868	      0.48918117	      2.25792326	      6.93538869	    -16.86303761	      9.50776108	      9.50776108	     15.94480249	     10.76040656	     -1.38266798	     33.03287720	    -10.36434954	     -3.36266146	     22.64747754	     22.64747754	      4.91941090	     -8.22691159	      9.80752198	    -10.42671938	      9.20538449	      5.80578603	     42.03105113	    -14.80081296	      2.96279072	    108.49484294	     43.80322451	      0.00000000	      0.00000000	    -12.39798552	     -7.02385767	     -2.71808109	     29.91139894	     45.80764878	      0.00000000	      0.00000000
     21.16971429	     -6.45299512	     -6.69958990	      2.24284925	      1.01148726	      0.92135111	      0.48758106	      1.79747822	      6.88632913	    -16.72482158	      9.60539960	      9.60539960	     16.40956611	     10.97380506	     -1.30477309	     32.54527679	    -10.20429040	     -3.01734812	     23.41485374	     23.41485374	      4.92643270	     -8.83469165	      9.65398288	    -10.16737520	      9.27382089	      5.60448720	     41.74644408	    -14.79202083	      3.18818887	    110.16912109	     43.76462243	      0.00000000	      0.00000000	    -12.76445580	     -6.88153115	     -2.61456327	     29.97414838	     45.78642078	      0.00000000	      0.00000000
     21.18207143	     -6.49806186	     -6.68721921	      2.09149124	      1.01160033	      0.92041820	      0.48583100	      1.44462656	      6.70041724	    -16.66503859	      9.91621115	      9.91621115	     16.91817467	     11.12377408	     -1.07785687	     32.05518608	     -9.95126779	     -2.63492125	     24.03457510	     24.03457510	      5.05647431	     -9.57230454	      9.37510994	     -9.95237016	      9.25424171	      5.67598600	     41.06495520	    -15.33645143	      3.39324912	    112.30183436	     43.71927661	      0.00000000	      0.00000000	    -12.93214277	     -6.83215646	     -2.57388904	     30.29751568	     45.77770723	      0.00000000	      0.00000000
     21.19442857	     -6.54997682	     -6.66327368	      1.94652920	      1.01168078	      0.91977319	      0.48410251	      1.04952263	      6.53488128	    -16.47750441	     10.08544326	     10.08544326	     17.20823193	     11.15474712	     -1.13505056	     31.56256556	     -9.76239538	     -2.47564563	     24.46878732	     24.46878732	      5.45237904	     -9.83340443	      9.14672285	     -9.67144627	      9.20961439	      5.41078508	     40.71748879	    -15.44482768	      3.41174454	    112.55015691	     43.71224677	      0.00000000	      0.00000000	    -12.98496999	     -6.74479330	     -2.55659806	     30.30030132	     45.77418086	      0.00000000	      0.00000000
     21.20678571	     -6.60028402	     -6.58259441	      1.86335151	      1.01156138	      0.91923933	      0.48209396	      1.01181888	      6.16182439	    -16.49336512	     10.96969264	     10.96969264	     17.89693997	     11.11485738	     -0.40728684	     31.23603008	     -9.42148619	     -1.98801942	     24.99928522	     24.99928522	      5.49882171	    -10.88777074	      8.40391190	     -9.59097974	      9.07255472	      5.86020228	     39.17899771	    -16.67221664	      3.24739590	    115.74805702	     43.66757840	      0.00000000	      0.00000000	    -12.74406871	     -6.80885039	     -2.51754786	     30.70114269	     45.77297550	      0.00000000	      0.00000000
     21.21914286	     -6.67678226	     -6.46797696	      1.77177108	      1.01132034	      0.91899909	      0.48006601	      1.04121149	      5.75789482	    -16.38554903	     11.87177859	     11.87177859	     18.30834139	     10.86972934	     -0.23235639	     30.92980115	     -9.12616887	     -1.74948142	     25.39583517	     25.39583517	      5.84433108	    -11.48009340	      7.91602226	     -9.41832617	      8.90437176	      5.62658009	     38.18261844	    -17.08504948	      3.21163525	    116.83653586	     43.65818997	      0.00000000	      0.00000000	    -12.52270846	     -6.77188415	     -2.43148892	     30.73444362	     45.76469359	      0.00000000	      0.00000000
     21.23150000	     -6.59354831	     -6.38102036	      1.73771676	      1.01119638	      0.91930191	      0.47798149	      0.78071679	      5.42505155	    -16.30037092	     12.51371771	     12.51371771	     18.44578620	     10.67146619	     -0.26747040	     30.48764561	     -8.90281627	     -1.59992644	     25.77973512	     25.77973512	      6.41409760	    -11.82984529	      7.57395612	     -9.41423250	      8.76962086	      5.11991237	     37.19963116	    -17.32207085	      3.26643376	    117.05454982	     43.65127519	      0.00000000	      0.00000000	    -12.33940473	     -6.76785696	     -2.42068677	     30.78993846	     45.76605972	      0.00000000	      0.00000000
     21.24385714	     -6.78007861	     -6.13016082	      1.64074764	      1.01067588	      0.91941302	      0.47574449	      1.37951967	      4.71491322	    -16.15018321	     14.24549520	     14.24549520	     18.88014937	     10.20122998	     -0.34132039	     30.24054649	     -8.47195715	     -1.44735186	     25.92160514	     25.92160514	      6.73870502	    -12.45778810	      7.14004922	     -9.18691092	      8.47139427	      5.13686745	     35.66148028	    -18.22930629	      3.09974404	    118.22414222	     43.63672598	      0.00000000	      0.00000000	    -11.82058027	     -6.81849979	     -2.46196634	     31.01157344	     45.78058362	      0.00000000	      0.00000000
     21.25621429	     -6.56699470	     -6.09125218	      1.67704283	      1.01060326	      0.92040248	      0.47346917	      1.16047817	      4.36687124	    -16.10810342	     15.19926740	     15.19926740	     18.83782870	      9.92480813	     -0.43950635	     29.61967370	     -8.29941532	     -1.32069268	     26.13736604	     26.13736604	      7.33194658	    -12.68275360	      6.83501674	     -9.34371386	      8.40506914	      4.52594587	     34.37598006	    -18.49143999	      3.12509571	    118.22682780	     43.63479942	      0.00000000	      0.00000000	    -11.47178826	     -6.81572215	     -2.45900781	     31.11967512	     45.78558505	      0.00000000	      0.00000000
     21.26857143	     -6.73869983	     -5.73129077	      1.51346030	      1.01010758	      0.92094814	      0.47116029	      2.08857978	      3.40768393	    -15.91166861	     17.56519552	     17.56519552	     19.06516937	      9.35103093	     -0.88600098	     29.17904370	     -7.79532607	     -1.38095329	     25.97387612	     25.97387612	      7.47645050	    -13.31932623	      6.19984126	     -9.16573753	      7.94534937	      5.31942217	     31.70599528	    -19.83550416	      1.72877575	    119.79177858	     43.68009015	      0.00000000	      0.00000000	    -10.36823900	     -6.96511107	     -2.44626112	     31.18160727	     45.80146846	      0.00000000	      0.00000000
     21.28092857	     -6.47783695	     -5.71919012	      1.52372550	      1.01005065	      0.92226988	      0.46883439	      2.23278419	      2.95061681	    -15.79408121	     19.27907371	     19.27907371	     18.87911969	      8.93137284	     -1.26284401	     28.37138786	     -7.67679618	     -1.39523542	     25.97438050	     25.97438050	      8.07576833	    -13.35341264	      5.93879150	     -9.38739279	      7.92136527	      4.68454826	     30.17442045	    -20.04289102	      1.82669855	    119.36732697	     43.68820550	      0.00000000	      0.00000000	     -9.93236276	     -7.00676996	     -2.43695053	     31.32879587	     45.80677495	      0.00000000	      0.00000000
     21.29328571	     -6.61575653	     -5.27487376	      1.28895226	      1.00957066	      0.92296467	      0.46652552	      3.53427109	      1.78747836	    -15.37593684	     22.34817424	     22.34817424	     18.75467368	      8.13566499	     -2.39330455	     27.82586533	     -7.18264226	     -1.85996782	     25.76569858	     25.76569858	      8.43905914	    -13.37244137	      5.69968515	     -9.14517628	      7.39628923	      4.57161474	     28.18347997	    -20.66248413	      1.70732723	    118.59795741	     43.71820625	      0.00000000	      0.00000000	     -9.29306730	     -7.17650058	     -2.49592649	     31.69697679	     45.82463671	      0.00000000	      0.00000000
